#format: frame checksums
#version: 2
#hash: MD5
#tb 0: 1/8000
#media_type 0: audio
#codec_id 0: pcm_s16le
#sample_rate 0: 8000
#channel_layout_name 0: mono
#stream#, dts,        pts, duration,     size, hash
0,          0,          0,      512,     1024, 509872bc6c29f368c07c526cff1a9358
0,        512,        512,      512,     1024, cfa5c21dc956d1b8d6554e950243580d
0,       1024,       1024,      512,     1024, 00d454ec6249cbd0e3147abb267fc918
0,       1536,       1536,      512,     1024, 1438f6ae88bf49778af0d336a07d0fd7
0,       2048,       2048,      512,     1024, 3a522ce177e1dc160ebb109f1c5df231
0,       2560,       2560,      512,     1024, 0401450fcac6a7b73ee3e773f956d10e
0,       3072,       3072,      512,     1024, b9f033dd01117773cfeef3083cd31fec
0,       3584,       3584,      512,     1024, 0ea73991f48316ac9f4c2297519a4056
0,       4096,       4096,      512,     1024, ea7860f39aae4a3252c885f00a7b70b5
0,       4608,       4608,      512,     1024, 1143a087e8da9b993bdbd955f9ddefdd
0,       5120,       5120,      512,     1024, f66d4215e70c7140c80af0504dd58885
0,       5632,       5632,      512,     1024, 4f71c3b8e92e7762320fdd49ef596359
0,       6144,       6144,      512,     1024, 6b83c4d82230eea695ac99bcf548b3ae
0,       6656,       6656,      512,     1024, dac7537764d99460e2d72e152ec9fc83
0,       7168,       7168,      512,     1024, 7e49ef6e5403295484303c4ba7fed2f7
0,       7680,       7680,      512,     1024, b621bbc2ce745f80272fc78f1b6c43fd
0,       8192,       8192,      512,     1024, 8cc00a7357374f2b1c8d8457a9899bbe
0,       8704,       8704,      512,     1024, 72f886661d27802139b2f2aab7e383bc
0,       9216,       9216,      512,     1024, 069e2f50c12541bb2499cffe8bd1dd71
0,       9728,       9728,      512,     1024, a13ca871c416e2c987ee3e25d071ea87
0,      10240,      10240,      512,     1024, 50b91291bad6dea9ed8fd9432dd3b736
0,      10752,      10752,      512,     1024, ebf4dbccb9c706a1a6c4568f91df8d83
0,      11264,      11264,      512,     1024, b16a6f72cbe58524e4eb74bacb53296d
0,      11776,      11776,      512,     1024, dc2c3e5ff23ecc067c6257c41f5aadf7
0,      12288,      12288,      512,     1024, 63f8bfeb955abb7df6a5231865659430
0,      12800,      12800,      512,     1024, bd65fc67b01eb49b7114c2c41b4989d2
0,      13312,      13312,      512,     1024, 4f3c63ee32a825348e6f878628f18361
0,      13824,      13824,      512,     1024, 56568f5a0ee53ee69c21282431ff68ac
0,      14336,      14336,      512,     1024, 0678feb628007ed041b13eda43181965
0,      14848,      14848,      512,     1024, 152c01f57cdb1962e724172639201a5e
0,      15360,      15360,      512,     1024, 1b216585457750da1af104bbccf36212
0,      15872,      15872,      512,     1024, 094b185d235f2f867d0292c03c9497a2
0,      16384,      16384,      512,     1024, f3fce67f25a127ef15a110f264132657
0,      16896,      16896,      512,     1024, 6a68dafccddf653225854941063b9031
0,      17408,      17408,      512,     1024, 2871f72241ee781f9cc59b5c8499ad05
0,      17920,      17920,      512,     1024, 77e7d660c81f53c82e21d76099b2183b
0,      18432,      18432,      512,     1024, 5bc9467dc2be078ce83871f6aadf5764
0,      18944,      18944,      512,     1024, 8b084f8aa7e2e7591f29fc93ac0dd22b
0,      19456,      19456,      512,     1024, 0388475d3cc739c38a3a166d0d52f4bb
0,      19968,      19968,      512,     1024, dc0d3acf822c5dbfe7b746a4f1888cd8
0,      20480,      20480,      512,     1024, 9a058bd7be699a85bf089fd92f1509b4
0,      20992,      20992,      512,     1024, 6ed8da8a779f9a8770a6863d29a73c38
0,      21504,      21504,      512,     1024, b081d7e2c2dc1459290477db71d8b17f
0,      22016,      22016,      512,     1024, 2d651cc37a640aeae422ab440100f025
0,      22528,      22528,      512,     1024, 10f0a29c10330333f96f1add981e8d9e
0,      23040,      23040,      512,     1024, ee6efe5a205f8863aa56bc08012d5d83
0,      23552,      23552,      512,     1024, 8aed25db2348fc6a63b6e91a421ef98a
0,      24064,      24064,      512,     1024, 6f535201ea35970b63ee96fc49be0c1a
0,      24576,      24576,      512,     1024, 81c8a2dfe062d41f1679d0407223bf97
0,      25088,      25088,      512,     1024, 95e20dcc54fdf147320ee53bb9ca209c
0,      25600,      25600,      512,     1024, 8711627df116a180527d2a71584d4601
0,      26112,      26112,      512,     1024, 5f1baf02dc68cc10b58f358a8feb0ccf
0,      26624,      26624,      512,     1024, 7e2a713cef97f53d2d29c0ac9e27b8a6
0,      27136,      27136,      512,     1024, f26367818187e7b684e822859e29446b
0,      27648,      27648,      512,     1024, 2df9646b0275e7366e90b9d23b2a20a4
0,      28160,      28160,      512,     1024, d97db93f6466f8e8b0d896593bc04b4f
0,      28672,      28672,      512,     1024, 594f731108e9d9f204b6a506e47a43db
0,      29184,      29184,      512,     1024, 5a48d0eae9c53b18cd927bcabcd11d22
0,      29696,      29696,      512,     1024, cd7587b2728ac1e0d7687d467defba92
0,      30208,      30208,      512,     1024, 864bafb2de0abf677dee6e5e06dbb26d
0,      30720,      30720,      512,     1024, 6be9be91161c7ec7d2509c3765679e80
0,      31232,      31232,      512,     1024, e1acd3986b7568d904af98487bf88640
0,      31744,      31744,      512,     1024, ed89b4fd224f2d36d7ee47f8ca15fc31
0,      32256,      32256,      512,     1024, 820a7441498f21b0caf5c34ad8daa1ad
0,      32768,      32768,      512,     1024, 56dfc5b56b5ca1d9444c664aacf0500c
0,      33280,      33280,      512,     1024, b61fab878762fcf9177bf9e83c2aa2ae
0,      33792,      33792,      512,     1024, fab396b874a237980fe79d7d02a51659
0,      34304,      34304,      512,     1024, 0642c5e20d55f7b0147e947b3184679f
0,      34816,      34816,      512,     1024, 1c92a13fd9fe79fa0dffac0ddb8cabac
0,      35328,      35328,      512,     1024, 1bfed4a6ead7e88b3fe0a2e803da14d2
0,      35840,      35840,      512,     1024, 2b2ae949b92d29e050eb602d68f6bc86
0,      36352,      36352,      512,     1024, e1ff41a54d86426476c9534a4406d071
0,      36864,      36864,      512,     1024, feec7432838350fc0ae0118d8b5fe42f
0,      37376,      37376,      512,     1024, 59473e20806ec8674117d04c137c0172
0,      37888,      37888,      512,     1024, 5c98c8ee2741683308848eace2e7609a
0,      38400,      38400,      512,     1024, e6bf774e0e989b23c104d08ef30de092
0,      38912,      38912,      512,     1024, eec550dd514edbfc1f4b9b49bff7366e
0,      39424,      39424,      512,     1024, b21b1e9cfef7e298a4570ee435a722d3
0,      39936,      39936,      512,     1024, 23265773ad05b8e6ee8203f71c7619a6
0,      40448,      40448,      512,     1024, c2f9d3c85a26dbc5f1ceeb274eab0174
0,      40960,      40960,      512,     1024, 8900733c9c7bbfd3e71c82180d177cf5
0,      41472,      41472,      512,     1024, 3b6521092d040bae7fae1073b07c73e8
0,      41984,      41984,      512,     1024, 96fecdbd5b111870ed50f86a5f3f32a2
0,      42496,      42496,      512,     1024, 4b407a4d8712d3403929c50204618597
0,      43008,      43008,      512,     1024, e3ecfb5dcde5a1faa1ce71d21d851d78
0,      43520,      43520,      512,     1024, 6d86c4cf614f4c5c2c85279d9fe9960a
0,      44032,      44032,      512,     1024, ad57b3b7c23b1270356dbeaa9eedd857
0,      44544,      44544,      512,     1024, 7ed1ad59bae5377ef9877b57f349843e
0,      45056,      45056,      512,     1024, 428ad7309bb2a0a85286a0dc789b4150
0,      45568,      45568,      512,     1024, fdb7fa40d670f2aaba55fdb85744da60
0,      46080,      46080,      512,     1024, 3fe30c526bbab9bd7f575a8338e081ac
0,      46592,      46592,      512,     1024, 5ed3fb2d1727bb3d1a2cf3c2ad2bc0f0
0,      47104,      47104,      512,     1024, 261943c4761b029527c1652eb50292c0
0,      47616,      47616,      384,      768, 5c073ba59dfd16c36c155aeff762ff15
